<?xml version="1.0" standalone="no"?><!DOCTYPE svg PUBLIC "-//W3C//DTD SVG 1.1//EN" "http://www.w3.org/Graphics/SVG/1.1/DTD/svg11.dtd"><svg t="1712622835158" class="icon" viewBox="0 0 1024 1024" version="1.1" xmlns="http://www.w3.org/2000/svg" p-id="4401" xmlns:xlink="http://www.w3.org/1999/xlink" width="16" height="16"><path d="M741.893656 295.889981c124.251672 150.897718 124.251672 288.472414 0 412.724086S480.067289 832.865739 329.16957 708.614067c157.428896 20.766538 270.866473-3.37058 340.316352-72.407735 68.52668-68.121197 92.663798-181.558774 72.407734-340.316351z" fill="#FCE4E4" p-id="4402"></path><path d="M414.009713 259.534057a20.48 20.48 0 0 1-18.3445-36.620211C514.946094 163.166604 660.543567 185.576797 756.375203 281.408434c121.970829 121.970829 121.970829 319.716351 0 441.68718S436.658852 845.066442 314.688023 723.095614c-95.831636-95.831636-118.24183-241.429109-58.494588-360.70999a20.48 20.48 0 0 1 36.620212 18.344499C240.919023 484.352832 260.385843 610.867246 343.651117 694.13252c105.97234 105.97234 277.788653 105.97234 383.760992 0s105.97234-277.788653 0-383.760992c-83.265274-83.265274-209.783308-102.735714-313.402396-50.837471z" fill="#EA5555" p-id="4403"></path><path d="M470.143809 318.955465a20.48 20.48 0 1 1-13.735748-38.586082C541.418362 250.10657 637.119665 270.764497 702.069402 335.714235c91.975925 91.975925 91.975925 241.099654 0 333.075578S460.969749 760.765738 368.993824 668.789813c-64.949738-64.949738-85.604044-160.64742-55.344852-245.661341a20.48 20.48 0 1 1 38.586082 13.735747C327.236284 507.117824 344.295546 586.165347 397.956918 639.826719c75.981056 75.981056 199.168335 75.981056 275.149391 0s75.981056-199.168335 0-275.149391c-53.661372-53.661372-132.712516-70.724255-202.9625-45.721863z" fill="#EA5555" p-id="4404"></path><path d="M528.971472 384.676345a20.48 20.48 0 1 1-2.262741-40.899509A158.34624 158.34624 0 0 1 647.763601 390.020035c61.981021 61.981021 61.981021 162.482956 0 224.463977-61.981021 61.981021-162.482956 61.981021-224.463976 0a158.34624 158.34624 0 0 1-46.2432-121.054871 20.48 20.48 0 1 1 40.895889 2.259122A117.39136 117.39136 0 0 0 452.262719 585.520918c45.989773 45.989773 120.548017 45.989773 166.537789 0s45.989773-120.548017 0-166.537789a117.39136 117.39136 0 0 0-89.829036-34.306784z" fill="#EA5555" p-id="4405"></path><path d="M336.410344 332.093848m14.481546-14.481547l0 0q14.481547-14.481547 28.963094 0l166.537789 166.537789q14.481547 14.481547 0 28.963094l0 0q-14.481547 14.481547-28.963093 0l-166.53779-166.537789q-14.481547-14.481547 0-28.963094Z" fill="#F29393" p-id="4406"></path><path d="M245.900676 285.028821l65.203164-7.20457L318.30841 212.621086l87.001513 87.001513-7.204569 65.203165-65.203165 7.20457z" fill="#EA5555" p-id="4407"></path></svg>