<?xml version="1.0" standalone="no"?><!DOCTYPE svg PUBLIC "-//W3C//DTD SVG 1.1//EN" "http://www.w3.org/Graphics/SVG/1.1/DTD/svg11.dtd"><svg t="1712539733957" class="icon" viewBox="0 0 1024 1024" version="1.1" xmlns="http://www.w3.org/2000/svg" p-id="11550" xmlns:xlink="http://www.w3.org/1999/xlink" width="16" height="16"><path d="M547.84 619.52L476.16 691.2l17.92 17.92c20.48 20.48 20.48 51.2 0 71.68l-125.44 125.44c-12.8 15.36-28.16 15.36-35.84 15.36-7.68 0-23.04-2.56-35.84-15.36l-179.2-179.2C102.4 714.24 102.4 698.88 102.4 691.2s2.56-23.04 15.36-35.84l125.44-125.44c12.8-12.8 28.16-15.36 35.84-15.36s23.04 2.56 35.84 15.36l17.92 17.92 71.68-71.68-17.92-17.92c-30.72-30.72-69.12-43.52-107.52-43.52s-79.36 15.36-107.52 43.52l-125.44 125.44c-58.88 58.88-58.88 156.16 0 215.04l179.2 179.2C253.44 1008.64 291.84 1024 332.8 1024s79.36-15.36 107.52-43.52l125.44-125.44c58.88-58.88 58.88-156.16 0-215.04l-17.92-20.48zM980.48 225.28l-179.2-179.2C770.56 15.36 732.16 0 691.2 0s-76.8 15.36-107.52 43.52l-125.44 125.44c-58.88 58.88-58.88 156.16 0 215.04l17.92 17.92 71.68-71.68-17.92-17.92c-20.48-20.48-20.48-51.2 0-71.68l125.44-125.44C668.16 102.4 683.52 102.4 691.2 102.4c7.68 0 23.04 2.56 35.84 15.36l179.2 179.2c15.36 12.8 15.36 28.16 15.36 35.84 0 7.68-2.56 23.04-15.36 35.84l-125.44 125.44c-12.8 12.8-28.16 15.36-35.84 15.36-7.68 0-23.04-2.56-35.84-15.36l-17.92-17.92-71.68 71.68 17.92 17.92c30.72 30.72 69.12 43.52 107.52 43.52s79.36-15.36 107.52-43.52l125.44-125.44c61.44-58.88 61.44-156.16 2.56-215.04z" p-id="11551"></path><path d="M709.12 386.56c20.48-20.48 20.48-51.2 0-71.68s-51.2-20.48-71.68 0L537.6 414.72V460.8h97.28l74.24-74.24zM350.72 601.6c-20.48 20.48-20.48 51.2 0 71.68 20.48 20.48 51.2 20.48 71.68 0l110.08-110.08H435.2v-46.08l-84.48 84.48zM947.2 665.6h-153.6c-12.8 0-25.6 12.8-25.6 25.6s12.8 25.6 25.6 25.6h153.6c12.8 0 25.6-12.8 25.6-25.6s-10.24-25.6-25.6-25.6zM785.92 750.08c-10.24-10.24-25.6-10.24-35.84 0s-10.24 25.6 0 35.84l110.08 110.08c10.24 10.24 25.6 10.24 35.84 0 10.24-10.24 10.24-25.6 0-35.84l-110.08-110.08zM691.2 768c-12.8 0-25.6 12.8-25.6 25.6v153.6c0 12.8 12.8 25.6 25.6 25.6s25.6-12.8 25.6-25.6v-153.6c0-12.8-12.8-25.6-25.6-25.6zM76.8 358.4h153.6c12.8 0 25.6-12.8 25.6-25.6 0-15.36-12.8-25.6-25.6-25.6H76.8c-12.8 0-25.6 10.24-25.6 25.6s12.8 25.6 25.6 25.6zM238.08 276.48c10.24 10.24 25.6 10.24 35.84 0s10.24-25.6 0-35.84L166.4 130.56c-10.24-10.24-25.6-10.24-35.84 0s-10.24 25.6 0 35.84l107.52 110.08zM332.8 256c12.8 0 25.6-12.8 25.6-25.6V76.8c0-12.8-12.8-25.6-25.6-25.6-15.36 0-25.6 12.8-25.6 25.6v153.6c0 15.36 12.8 25.6 25.6 25.6z" p-id="11552"></path></svg>