<?xml version="1.0" encoding="UTF-8" standalone="no"?>
<svg
   t="1712539498633"
   class="icon"
   viewBox="0 0 1024 1024"
   version="1.1"
   p-id="4295"
   width="16"
   height="16"
   id="svg4"
   sodipodi:docname="电量.svg"
   inkscape:version="1.2.2 (732a01da63, 2022-12-09)"
   xmlns:inkscape="http://www.inkscape.org/namespaces/inkscape"
   xmlns:sodipodi="http://sodipodi.sourceforge.net/DTD/sodipodi-0.dtd"
   xmlns="http://www.w3.org/2000/svg"
   xmlns:svg="http://www.w3.org/2000/svg">
  <defs
     id="defs8" />
  <sodipodi:namedview
     id="namedview6"
     pagecolor="#ffffff"
     bordercolor="#000000"
     borderopacity="0.25"
     inkscape:showpageshadow="2"
     inkscape:pageopacity="0.0"
     inkscape:pagecheckerboard="0"
     inkscape:deskcolor="#d1d1d1"
     showgrid="false"
     inkscape:zoom="19.290757"
     inkscape:cx="22.731094"
     inkscape:cy="8.6051574"
     inkscape:window-width="1920"
     inkscape:window-height="1027"
     inkscape:window-x="-8"
     inkscape:window-y="-8"
     inkscape:window-maximized="1"
     inkscape:current-layer="a265" />
  <a
     id="a265">
    <path
       d="M 918.37382,440.68067 V 359.23778 C 918.37382,314.44665 881.72411,277.8 836.93605,277.8 H 144.7001 c -44.791134,0 -81.437775,36.64665 -81.437775,81.43778 l -10e-7,325.75623 c 0,44.79113 36.646642,81.44289 81.437776,81.44289 h 692.23595 c 44.78806,0 81.43777,-36.65074 81.43777,-81.44289 v -81.43778 c 22.39608,0 40.7194,-18.3223 40.7194,-40.7194 v -81.43675 c 0,-22.39609 -18.32332,-40.71941 -40.7194,-40.71941 z m -40.71837,40.71941 v 81.43675 122.15718 c 0,22.39505 -18.32332,40.71837 -40.7194,40.71837 H 144.7001 c -22.39608,0 -40.7194,-18.32332 -40.7194,-40.71837 l 0,-325.75623 c 0,-22.39608 18.32332,-40.7194 40.7194,-40.7194 h 692.23595 c 22.39607,0 40.71939,18.32332 40.71939,40.7194 z"
       fill="#272636"
       p-id="4296"
       id="path2"
       sodipodi:nodetypes="csssssssscsscccssssssssc" />
    <rect
       style="fill:#000000;stroke-width:64"
       id="rect323"
       width="733.20087"
       height="369.91806"
       x="122.7531"
       y="336.74161" />
  </a>
</svg>
