<?xml version="1.0" standalone="no"?><!DOCTYPE svg PUBLIC "-//W3C//DTD SVG 1.1//EN" "http://www.w3.org/Graphics/SVG/1.1/DTD/svg11.dtd"><svg t="1712622894813" class="icon" viewBox="0 0 1024 1024" version="1.1" xmlns="http://www.w3.org/2000/svg" p-id="7589" xmlns:xlink="http://www.w3.org/1999/xlink" width="16" height="16"><path d="M107.136 674.752a416.896 416.896 0 0 0 153.728 255.488h-153.6zM203.2 485.12a335.808 335.808 0 0 0-20.288 115.392c0 168.192 123.264 307.264 283.456 329.792H275.84a409.152 409.152 0 0 1-161.536-392.32z m619.264 4.736l1.6 0.576 86.208 51.392c1.856 13.056 3.072 26.24 3.648 39.552l0.448 19.136a407.04 407.04 0 0 1-166.208 329.792H557.632c160.192-22.528 283.456-161.6 283.456-329.792a336 336 0 0 0-18.624-110.72z m94.272 185.6v254.784h-153.6a416.896 416.896 0 0 0 153.6-254.848zM512 276.544c68.992 0 134.656 21.952 189.184 62.592l-7.68 70.4-12.48 9.024a244.48 244.48 0 0 0-156.352-67.456L512 350.848c-136.32 0-246.784 111.808-246.784 249.664s110.528 249.6 246.784 249.6c136.32 0 246.784-111.744 246.784-249.6 0-36.8-7.936-71.744-22.016-103.232l34.944-25.408 39.872 14.08c13.44 36.16 20.48 74.816 20.48 114.56 0 86.528-33.28 167.872-93.76 229.056A316.032 316.032 0 0 1 512 924.416a316.032 316.032 0 0 1-226.304-94.848A323.712 323.712 0 0 1 192 600.512c0-42.816 8.192-84.352 23.68-122.816l110.08-65.28-9.6-68.032A315.2 315.2 0 0 1 512 276.608z m0 83.328c62.272 0 119.04 24.32 161.472 64.128l-61.248 44.608A162.496 162.496 0 0 0 512 434.112c-90.816 0-164.48 74.56-164.48 166.4s73.664 166.4 164.48 166.4c90.816 0 164.48-74.56 164.48-166.4 0-18.56-3.072-36.48-8.64-53.12l61.376-44.608c13.184 29.824 20.48 62.912 20.48 97.728 0 132.672-106.624 240.64-237.696 240.64s-237.76-107.968-237.76-240.64c0-132.672 106.688-240.64 237.76-240.64z m0 83.328c34.624 0 66.688 11.52 92.544 30.976l-65.792 47.744A81.152 81.152 0 0 0 512 517.504a82.56 82.56 0 0 0-82.112 83.008A82.56 82.56 0 0 0 512 683.52a82.56 82.56 0 0 0 82.112-83.008v0.384l66.048-48c3.712 11.904 6.08 24.384 6.912 37.312l0.32 10.304c0 86.72-69.76 157.312-155.392 157.312-85.696 0-155.392-70.592-155.392-157.312 0-86.72 69.76-157.248 155.392-157.248zM512 193.28a396.8 396.8 0 0 1 178.048 41.856l13.312 83.2-1.088 10.496A324.992 324.992 0 0 0 512 267.52 325.12 325.12 0 0 0 314.624 334.08l-0.768-5.44 13.568-90.176A396.672 396.672 0 0 1 512 193.28z m164.288-44.096l12.032 75.136A405.824 405.824 0 0 0 512 184.32a405.76 405.76 0 0 0-182.912 43.328l11.84-78.4 0.32-0.192 2.176-1.6c21.44-14.72 177.152-114.048 332.8 1.792z" fill="#006935" p-id="7590"></path><path d="M811.008 256.896c12.16 0.768 22.912 11.392 24.576 24.192l0.256 2.56 1.792 71.424 67.52 24a28.288 28.288 0 0 1 18.176 29.44 19.456 19.456 0 0 1-24.512 16.64l-2.496-0.704-66.112-23.488-17.408 12.672 30.08 10.688a28.288 28.288 0 0 1 18.24 29.376 19.456 19.456 0 0 1-24.512 16.64l-2.56-0.64L768 446.144 533.76 616.384c-9.28 6.72-23.04 3.776-31.424-6.72-8.32-10.432-8.32-24.832 0.128-32.64l1.728-1.472 225.92-164.16-2.368-88.128c-0.256-12.608 8.96-21.824 21.056-21.056a27.968 27.968 0 0 1 24.576 24.064l0.192 2.624 1.344 49.92 17.408-12.672-2.368-88.064c-0.32-12.672 8.96-22.016 21.056-21.184" fill="#006935" p-id="7591"></path></svg>